<svg width="651" height="651" viewBox="0 0 651 651" fill="none" xmlns="http://www.w3.org/2000/svg">
<path d="M499.918 232.969C397.796 181.401 201.429 190.125 100.633 235.25C54.7274 255.802 -29.9205 315.351 21.5881 371.572C30.6729 381.489 41.7159 389.545 53.1412 396.516C178.882 473.231 354.257 465.419 489.205 419.516C509.331 412.67 529.136 404.543 547.356 393.497C560.984 385.236 574.159 374.996 584.771 363.047C615.836 328.065 607.721 292.86 574.298 263.203C535.546 228.818 482.554 218.162 432.552 212.326C388.829 207.223 345.16 206.243 301.23 208.326C218.843 212.231 123.897 218.445 54.7979 265.456C24.6173 285.99 -7.80773 329.867 18.0624 365.379C46.096 403.86 112.196 416.32 156.656 424.441C276.594 446.348 466.368 435.485 575.617 377.998C587.398 371.799 599.332 366.022 609.871 357.87C618.198 351.428 626.171 344.083 633.088 336.135C682.104 279.803 572.728 244.384 534.154 238.301C412.806 219.166 233.204 191.553 121.448 242.455" stroke="black" stroke-width="6" stroke-miterlimit="1.5" stroke-linecap="round" stroke-linejoin="round"/>
</svg>
