<?xml version="1.0" standalone="no"?>
<!DOCTYPE svg PUBLIC "-//W3C//DTD SVG 20010904//EN"
 "http://www.w3.org/TR/2001/REC-SVG-20010904/DTD/svg10.dtd">
<svg version="1.0" xmlns="http://www.w3.org/2000/svg"
 width="114.000000pt" height="114.000000pt" viewBox="0 0 114.000000 114.000000"
 preserveAspectRatio="xMidYMid meet">
<metadata>
Created by potrace 1.14, written by Peter Selinger 2001-2017
</metadata>
<g transform="translate(0.000000,114.000000) scale(0.100000,-0.100000)"
fill="#000000" stroke="none">
<path d="M430 1104 c-258 -68 -436 -316 -416 -578 19 -234 165 -421 386 -496
86 -30 238 -32 325 -6 192 57 340 208 390 396 26 96 33 90 -113 90 l-128 0 0
53 c0 117 -66 222 -172 274 -46 23 -70 28 -127 28 -87 -1 -131 -16 -194 -65
-70 -55 -111 -141 -111 -230 0 -97 23 -155 89 -221 64 -64 124 -89 211 -89 73
0 138 23 188 66 38 32 45 34 112 34 l71 0 -33 -46 c-40 -57 -122 -116 -197
-145 -47 -17 -72 -20 -156 -17 -83 3 -109 9 -157 32 -208 100 -299 345 -204
552 75 163 274 268 447 236 159 -29 275 -129 326 -281 l22 -66 70 -3 c85 -3
85 -2 46 115 -61 181 -210 321 -392 368 -71 19 -211 18 -283 -1z m231 -408
c69 -47 91 -151 47 -216 -39 -57 -72 -75 -137 -75 -48 0 -64 5 -95 29 -90 68
-85 204 10 266 44 30 129 27 175 -4z"/>
</g>
</svg>
